# xmcd CD database file
# Copyright (C) 1993-1998 Ti Kan
# 
# Track frame offsets:
#     150
#     13147
#     27030
#     41647
#     52472
#     62322
#     76180
#     90054
#     103562
#     114692
# 
# Disc length: 1724 seconds
# 
# Revision: 1
# Processed by: cddbd v1.4b41PL1 Copyright (c) Steve Scherf et al.
# Submitted via: DiscPlay 4.0.4
# 
DISCID=7106ba0a
DTITLE=Johnny Paycheck - Take This Job and Shove It
DYEAR=1900
DGENRE=
TTITLE0=Take This Job and Shove It
TTITLE1=Slide Off of Your Satin Sheets
TTITLE2=Somebody loves Me
TTITLE3=Motel Time Again
TTITLE4=Mr. Lovemaker
TTITLE5=Don't Take Her, She's all I Got
TTITLE6=I'm the Only Hell Mama Ever Raised
TTITLE7=Song and Dance Man
TTITLE8=Jukebox Charlie
TTITLE9=Green Green Grass of Home
EXTD=
EXTT0=
EXTT1=
EXTT2=
EXTT3=
EXTT4=
EXTT5=
EXTT6=
EXTT7=
EXTT8=
EXTT9=
PLAYORDER=
